<svg width="325" height="78" viewBox="0 0 325 78" fill="none" xmlns="http://www.w3.org/2000/svg">
<path d="M100.159 44.7217C100.354 45.0233 100.086 58.7957 100.195 60.171C100.268 61.082 99.703 62.4438 98.8262 62.9258C97.7463 63.519 96.527 64.0909 95.3828 64.6456L89.6729 67.461L77.7598 73.3155C74.9018 74.7407 72.0325 76.1436 69.1524 77.5235C69.2736 74.7138 69.199 71.3652 69.1953 68.5196L69.2002 48.6006C69.2002 47.6305 69.232 46.4684 69.1397 45.5167C69.5641 46.0254 70.2167 46.6601 70.6944 47.1446L73.2422 49.7237L75.6612 52.1622C77.0606 53.5694 78.423 55.2427 80.6582 54.5567C81.4344 54.3184 82.2742 53.843 83.0039 53.4776L87 51.4493L95.084 47.3633C96.7371 46.5229 98.562 45.6402 100.159 44.7217Z" fill="white"/>
<path d="M35.791 44.6973C36.5838 45.2198 38.4631 46.1027 39.3672 46.5567L51.2324 52.5752C52.465 53.2033 55.0608 54.7244 56.3506 54.6885C56.9974 54.6759 57.6274 54.4807 58.169 54.127C58.9929 53.5892 60.6629 51.827 61.4268 51.0577C63.2401 49.2471 65.0362 47.4187 66.8145 45.5733C66.7063 47.8142 66.7956 50.7735 66.7949 53.0713L66.7998 68.4415C66.7834 71.4669 66.7898 74.4922 66.8203 77.5176C65.3548 76.876 63.6444 75.9897 62.1856 75.2706L54.0225 71.2461L42.6865 65.6827C41.4885 65.0919 37.5067 63.3121 36.7139 62.5372C36.3141 62.1465 36.0012 61.6374 35.8955 61.085C35.7505 60.3269 35.803 59.5323 35.8057 58.7647L35.8106 55.9239C35.8175 52.2251 35.8559 48.3887 35.791 44.6973Z" fill="white"/>
<path d="M54.6758 0.296929C55.6148 -0.11375 56.3871 -0.133051 57.2403 0.501031C57.8163 0.92919 58.3151 1.47532 58.8213 1.98345L61.0469 4.21685L67.8526 10.921C65.6393 11.783 62.7591 13.2237 60.5293 14.253L44.4326 21.668L39.3281 24.0079C38.6897 24.3002 37.9521 24.6587 37.2656 24.962L36.6026 25.2422C36.3216 25.3699 35.9867 25.5118 35.7207 25.6563L36.4668 26.0381L57.2803 36.2442L64.5264 39.7872C65.4902 40.258 67.0581 40.9528 67.9307 41.4405C67.1296 42.1053 65.8775 43.4379 65.1104 44.212L60.1797 49.1983C59.3352 50.0561 58.5086 50.9606 57.5948 51.7452C56.7747 52.4489 55.8847 52.4165 54.9463 51.9542C53.7037 51.342 52.473 50.7108 51.2383 50.085L44.1768 46.5186L30.9639 39.9034C30.0415 39.4387 26.3589 37.7109 25.8604 37.2051C25.5389 36.8819 25.3637 36.4404 25.376 35.9844C25.3963 35.3118 26.5896 34.2947 27.0694 33.836L29.1182 31.8838L35.7188 25.6338L29.4824 19.0489L27.4287 16.9024C27.0315 16.4877 26.4271 15.883 26.0938 15.4376C25.9059 15.1881 25.7937 14.8886 25.7705 14.5772C25.7414 14.1741 25.8811 13.7765 26.1563 13.4805C26.7058 12.8794 30.6331 11.2278 31.583 10.794L41.2285 6.41705L49.7471 2.53423C51.3871 1.78185 53.0195 1.02153 54.6758 0.296929Z" fill="white"/>
<path d="M80.2647 0.00493706C80.6524 0.0316912 80.8921 0.109615 81.252 0.266656C82.5163 0.818761 83.7733 1.41105 85.0303 1.9815L103.188 10.2276C105.13 11.1069 107.09 11.9826 109.021 12.8858C109.753 13.2283 110.372 13.7978 110.253 14.6622C110.134 15.519 108.901 16.591 108.313 17.209L105.6 20.0713L102.207 23.6368C101.636 24.2362 100.853 25.1087 100.261 25.6377C102.564 27.7907 104.855 29.9579 107.131 32.1397C108.036 32.9977 109.612 34.3091 110.327 35.2403C110.52 35.4907 110.617 35.7198 110.624 36.0381C110.634 36.5156 110.507 36.8485 110.165 37.1885C109.52 37.8302 105.931 39.4474 104.86 39.9805L96.3125 44.2549L86.1328 49.3907C84.4202 50.2548 82.7066 51.1263 80.9903 51.9747C80.3951 52.2693 79.5304 52.4506 78.9541 52.085C77.8669 51.3958 76.8171 50.1845 75.916 49.2735L70.8487 44.1631C70.0967 43.4091 68.8365 42.0798 68.0635 41.4493C68.8992 40.9763 70.1675 40.4063 71.0655 39.9698L76.4483 37.3467L90.5957 30.4258C93.6313 28.9467 97.2662 27.2617 100.222 25.6651C98.0505 24.5786 95.4252 23.443 93.1992 22.4317C90.7126 21.2736 88.2169 20.1333 85.7139 19.0108C86.7827 17.9492 89.4867 15.3274 90.1211 14.1583C90.4301 13.5887 90.5822 12.973 90.5869 12.3252C90.6024 10.2416 88.8104 8.83643 87.4649 7.47173C86.4246 6.41638 85.473 5.42056 83.8838 5.42193C83.2856 5.42256 82.6553 5.58465 82.1514 5.90923C81.0336 6.62912 80.0124 7.93244 79.0987 8.9063C77.55 10.5563 76.0223 12.24 74.4209 13.8379C72.692 12.9054 69.9866 11.7567 68.1407 10.9102C70.6005 8.61819 72.9943 6.09533 75.4141 3.74419C76.4982 2.69102 77.6667 1.39751 78.8467 0.458062C79.261 0.128615 79.7455 -0.0308411 80.2647 0.00493706Z" fill="white"/>
<path d="M83.6182 7.65337C84.2928 7.61384 84.8433 7.83784 85.3067 8.34478C86.2198 9.34348 87.342 10.3078 88.1455 11.3868C88.579 11.9684 88.4592 12.8719 87.9873 13.4044C87.1664 14.3306 86.2875 15.2358 85.4297 16.1407L80.8135 21.0508L72.1621 30.3389C70.913 31.6794 69.6759 33.0372 68.4131 34.3633C67.7719 35.0369 67.1792 35.7052 66.1719 35.6973C65.8149 35.6924 65.2933 35.526 65.0157 35.294C64.2345 34.6412 63.5036 33.8147 62.7998 33.0792L58.7627 28.8692L55.9405 25.9454C54.8632 24.8289 53.204 23.5965 54.6807 22.004C55.6024 21.0476 56.4952 20.0528 57.4668 19.1456C59.0109 17.7042 60.5148 19.9914 61.5039 20.9639C63.0936 22.5267 64.5732 24.2601 66.1992 25.7686C70.079 21.7289 73.9022 17.5599 77.7383 13.4727L80.8653 10.128C81.4985 9.44854 82.1328 8.7404 82.8076 8.10259C83.0633 7.86072 83.2966 7.7813 83.6182 7.65337Z" fill="white"/>
<path d="M129.581 49.7617V27.2148H133.612V36.5898H144.581V27.2148H148.596V49.7617H144.581V39.9805H133.612V49.7617H129.581ZM159.943 50.1055C154.818 50.1055 151.725 46.7617 151.725 41.2305V41.1992C151.725 35.7148 154.865 32.3555 159.943 32.3555C165.037 32.3555 168.162 35.6992 168.162 41.1992V41.2305C168.162 46.7617 165.053 50.1055 159.943 50.1055ZM159.943 46.9492C162.646 46.9492 164.178 44.8398 164.178 41.2461V41.2148C164.178 37.6211 162.631 35.4961 159.943 35.4961C157.24 35.4961 155.693 37.6211 155.693 41.2148V41.2461C155.693 44.8398 157.24 46.9492 159.943 46.9492ZM170.868 49.7617V32.6836H174.759V35.3398H175.025C175.759 33.4336 177.478 32.3555 179.712 32.3555C182.025 32.3555 183.712 33.543 184.446 35.4336H184.712C185.54 33.5742 187.509 32.3555 189.884 32.3555C193.321 32.3555 195.384 34.4648 195.384 38.0117V49.7617H191.493V38.9648C191.493 36.7461 190.478 35.6211 188.4 35.6211C186.368 35.6211 185.056 37.1367 185.056 39.0898V49.7617H181.165V38.6836C181.165 36.793 179.993 35.6211 178.087 35.6211C176.165 35.6211 174.759 37.2461 174.759 39.3711V49.7617H170.868ZM206.106 50.1055C201.028 50.1055 197.95 46.6992 197.95 41.2617V41.2461C197.95 35.8711 201.059 32.3555 205.918 32.3555C210.778 32.3555 213.778 35.7617 213.778 40.918V42.1992H201.84C201.887 45.2617 203.543 47.043 206.184 47.043C208.293 47.043 209.496 45.9805 209.871 45.1992L209.918 45.0898H213.621L213.575 45.2305C213.028 47.4336 210.746 50.1055 206.106 50.1055ZM205.965 35.4023C203.793 35.4023 202.168 36.8711 201.871 39.5898H209.981C209.715 36.793 208.137 35.4023 205.965 35.4023ZM224.703 50.3242C219.468 50.3242 216.14 47.7461 215.859 43.8555L215.843 43.6367H219.75L219.765 43.793C219.953 45.6836 221.968 46.9336 224.828 46.9336C227.546 46.9336 229.453 45.5898 229.453 43.6523V43.6367C229.453 42.0117 228.281 41.0273 225.375 40.4023L222.953 39.9023C218.343 38.9336 216.343 36.7773 216.343 33.418V33.4023C216.343 29.3711 219.812 26.6523 224.687 26.6523C229.687 26.6523 232.796 29.3867 233.078 33.0117L233.093 33.2148H229.234L229.203 33.0273C228.921 31.2773 227.25 30.0273 224.671 30.043C222.171 30.043 220.39 31.2148 220.39 33.1367V33.1523C220.39 34.7461 221.531 35.7461 224.343 36.3398L226.765 36.8555C231.515 37.8555 233.5 39.7617 233.5 43.168V43.1836C233.5 47.5742 230.109 50.3242 224.703 50.3242ZM243.143 49.8398C239.221 49.8398 237.612 48.5273 237.612 45.2305V35.6992H234.956V32.6836H237.612V28.4961H241.565V32.6836H245.175V35.6992H241.565V44.3086C241.565 46.0117 242.237 46.7305 243.862 46.7305C244.409 46.7305 244.706 46.7148 245.175 46.668V49.668C244.612 49.7773 243.893 49.8398 243.143 49.8398ZM255.068 50.1055C249.943 50.1055 246.85 46.7617 246.85 41.2305V41.1992C246.85 35.7148 249.99 32.3555 255.068 32.3555C260.162 32.3555 263.287 35.6992 263.287 41.1992V41.2305C263.287 46.7617 260.178 50.1055 255.068 50.1055ZM255.068 46.9492C257.771 46.9492 259.303 44.8398 259.303 41.2461V41.2148C259.303 37.6211 257.756 35.4961 255.068 35.4961C252.365 35.4961 250.818 37.6211 250.818 41.2148V41.2461C250.818 44.8398 252.365 46.9492 255.068 46.9492ZM273.321 50.1055C268.181 50.1055 265.15 46.7773 265.15 41.1992V41.168C265.15 35.6523 268.165 32.3555 273.306 32.3555C277.696 32.3555 280.321 34.793 280.759 38.3242V38.3867H277.087L277.071 38.3398C276.712 36.6836 275.446 35.4961 273.321 35.4961C270.665 35.4961 269.103 37.5898 269.103 41.168V41.1992C269.103 44.8242 270.681 46.9492 273.321 46.9492C275.337 46.9492 276.571 46.0273 277.056 44.2305L277.087 44.168L280.759 44.1523L280.728 44.2773C280.165 47.7773 277.65 50.1055 273.321 50.1055ZM283.418 49.7617V26.0742H287.309V39.6836H287.575L293.871 32.6836H298.371L291.496 39.9023L298.84 49.7617H294.153L288.668 42.3711L287.309 43.7617V49.7617H283.418Z" fill="white"/>
</svg>
